<svg width="12" height="29" viewBox="0 0 12 29" fill="none" xmlns="http://www.w3.org/2000/svg">
<path d="M8.62934 0.716842C9.31016 0.321037 10.1807 0.555925 10.5738 1.24148C10.9669 1.92703 10.7336 2.80365 10.0528 3.19945L2.65636 7.49946C1.97554 7.89527 1.10498 7.66038 0.711904 6.97483C0.318831 6.28927 0.552098 5.41266 1.23292 5.01685L8.62934 0.716842Z" fill="white"/>
<path d="M10.5999 12.8889C11.3731 12.8889 11.9998 13.6102 11.9998 14.5C11.9998 15.3898 11.3731 16.1111 10.5999 16.1111H2.20013C1.42695 16.1111 0.800171 15.3898 0.800171 14.5C0.800171 13.6102 1.42695 12.8889 2.20013 12.8889H10.5999Z" fill="white"/>
<path d="M10.0527 25.8005C10.7336 26.1963 10.9668 27.0729 10.5738 27.7585C10.1807 28.444 9.31012 28.6789 8.6293 28.2831L1.23288 23.9831C0.552057 23.5873 0.31879 22.7107 0.711863 22.0251C1.10494 21.3396 1.9755 21.1047 2.65632 21.5005L10.0527 25.8005Z" fill="white"/>
</svg>
