<svg width="116" height="84" viewBox="0 0 116 84" fill="none" xmlns="http://www.w3.org/2000/svg">
<path d="M114.552 69.2607C102.401 71.7932 88.9088 72.1731 57.2761 72.1731C25.6434 72.1731 0 70.8691 0 69.2607C0 67.6522 25.6434 66.3483 57.2761 66.3483C78.8935 66.3483 103.305 65.3227 113.055 66.2217C117.573 66.6382 115.89 68.9819 114.552 69.2607Z" fill="#E3D7F4"/>
<path d="M13.1674 53.9921C12.9079 52.9745 12.3838 52.1292 11.5452 51.433C12.7667 50.7786 13.6551 46.8716 10.5617 46.4906C11.8783 37.3705 1.2005 37.6532 3.77443 47.0847C3.7611 47.304 3.65094 47.4851 3.44573 47.6281C1.21297 49.4839 0.887814 52.0731 2.02075 54.73C-0.583142 58.3777 3.27536 61.9131 6.67502 62.1027C7.02641 62.1223 7.22392 62.0736 7.57584 62.0769C10.2818 62.1027 10.6363 61.4119 11.698 60.2096C13.1993 58.51 13.7253 56.18 13.1674 53.9921Z" fill="#C4B0EB"/>
<path d="M7.76664 61.9172L7.80677 69.1037C7.50407 69.1037 7.01994 69.3798 6.85594 68.9904C6.85594 68.1683 6.88385 62.7606 6.88385 61.9423L6.88908 57.9627L4.91328 55.6445C4.76237 55.4671 4.83913 55.0837 5.02668 54.9842C5.23168 54.8761 5.50035 54.9695 5.65824 55.159L6.87949 56.6283L6.89868 51.3144C6.89868 51.15 7.19178 50.97 7.33397 50.9812C7.47616 50.9925 7.75094 51.1967 7.75181 51.3784L7.7806 58.0172L9.72412 55.5051C9.84887 55.3442 10.217 55.4117 10.319 55.5337C10.4307 55.667 10.4464 55.962 10.3295 56.1117L7.76926 59.3887L7.76664 61.9146V61.9172Z" fill="#9075D1"/>
<path d="M102.615 67.5081L102.717 67.325C103.472 67.2255 103.964 66.7226 104.054 65.954L104.05 63.849L104.225 63.7202L104.211 55.1971C104.143 55.1785 104.041 55.1474 104.037 55.0923C103.995 54.5521 103.958 52.7509 104.049 52.2889L104.225 52.1592L105.204 52.2836L105.207 56.1568L106.764 56.1461L106.768 47.6444L112.482 47.6346C112.668 47.6346 112.826 47.8044 112.804 47.9794L112.8 52.1467L115.628 52.1761L115.535 67.7116H102.799L102.615 67.5081Z" fill="#E0D4F4"/>
<path d="M69.7306 32.028C70.4255 31.9437 70.9978 32.4794 70.9978 33.175L71.0111 63.6601L71.0128 63.6583L70.9917 67.5377L70.9246 67.7116C67.3215 67.5933 63.6537 67.3893 60.1076 67.3893V67.1697C60.0608 66.1579 60.0643 65.1241 60.1172 64.0685C59.4082 63.9938 59.1781 63.8129 59.4276 63.5248L60.2813 63.5274L60.2715 51.1393C60.2715 50.3471 59.5845 50.0134 58.887 50.0406L42.2265 50.6923L17.0391 51.6584C16.5673 51.6769 16.3177 51.0103 16.3177 50.6291L16.3106 40.5737L15.2436 40.5658V38.5756L16.8027 38.4491C34.488 36.3206 52.0504 34.1841 69.7306 32.028Z" fill="#9075D1"/>
<path d="M35.3428 18.7721C38.5788 18.7721 38.8864 23.0961 35.6082 23.0961C27.9076 22.9787 18.98 23.0608 10.9911 23.0608C8.02113 22.4149 9.30244 18.5116 12.1336 19.0016C12.3006 17.7248 13.1473 16.3107 14.7685 15.5509C16.0929 14.9301 17.3981 15.1058 18.6109 15.6921C18.6109 9.42455 31.4661 8.8506 31.4661 16.0992C33.6572 15.8705 35.3428 16.5327 35.3428 18.7721Z" fill="#DED1F3"/>
<path d="M91.0897 67.3407C90.9156 67.8081 90.7022 68.2736 90.4094 68.6569C89.7862 69.4728 88.8978 70.2999 87.83 70.3027L84.2836 70.3141C83.2024 70.3178 82.3087 69.5162 81.6721 68.6853C81.3292 68.6456 80.8721 67.9412 81.1239 67.6768L81.1631 67.4729L85.6979 67.4002L91.0879 67.3397L91.0897 67.3407Z" fill="#4B3A83"/>
<path d="M75.5 24.0001C75.6252 24.1077 75.7054 24.4356 75.4797 24.5608C73.9764 25.2947 73.219 26.3548 73.0198 28.0015L73.0004 34.1288L72.824 34.2338C73.1 34.2144 73.0877 35.0814 72.8223 35.1467C72.8901 35.1555 72.9933 35.1758 72.9986 35.2243C73.0206 35.4192 73.0233 36.7281 72.936 36.8172C72.9069 36.8463 72.8646 36.8622 72.8187 36.8736C72.8866 37.0527 72.817 37.2679 72.6089 37.5175L72.5216 37.8615L72.5128 44.2243L72.601 44.7164C72.75 44.9175 72.8152 45.1028 72.7976 45.2721L72.9748 45.4353L73.0303 54.4635C73.1626 55.2564 73.7666 55.753 74.5433 55.8421L102.64 55.9153C103.204 55.8527 103.691 55.574 104.101 55.0774L104.285 55.1603L104.461 55.2212C104.466 57.9845 104.47 60.7478 104.474 63.5129L104.298 63.6214L104.238 63.7978C93.1692 63.8789 82.1418 63.9442 71.1576 63.9936H70.8755V63.7334L70.8622 33.2063C70.8049 32.5465 70.4549 32.2105 69.7892 32.2272C50.2316 34.6227 34.6369 36.6728 15.2958 38.8273C15.2958 36.602 14.5314 33.4912 18.8517 32.9179L28.3961 31.474L28.8943 31.4026L65.043 25.8186L75.5 24.0001Z" fill="#A88BE2"/>
<path d="M80.2323 62.1346L75.7469 62.126C75.4265 62.126 75.1026 61.7473 75.1026 61.4129V59.5669C75.1034 59.1411 75.4309 58.7885 75.8168 58.7885L80.358 58.7913C80.7614 58.7913 81.0434 59.1498 81.0452 59.5688L81.0513 61.2976C81.053 61.8204 80.7221 62.1356 80.2323 62.1346Z" fill="#EFE6F8"/>
<path d="M101.95 62.1346H97.7441C97.2845 62.0715 97.0357 61.7688 97.0385 61.3119L97.0468 59.584C97.0487 59.2027 97.3289 58.7885 97.734 58.7885H101.898C102.342 58.7885 102.618 59.1319 102.615 59.5685L102.607 61.4011C102.605 61.764 102.333 62.0638 101.949 62.1346H101.95Z" fill="#EFE6F8"/>
<path d="M104.098 63.6227L104.103 65.695C104.104 66.5381 103.317 67.2157 102.471 67.2241L90.9457 67.3297L90.7534 67.5004L81.1016 67.6305C81.0011 67.6828 80.8855 67.6744 80.7567 67.606C77.4757 67.6702 74.2052 67.7048 70.9436 67.7116H70.641C70.6459 66.4438 70.6556 65.176 70.6622 63.9082V63.8094L76.1977 63.8035L87.8375 63.7181L104.097 63.6218L104.098 63.6227Z" fill="#7A61B9"/>
<path d="M78.0916 65.3834C77.318 65.559 76.5161 65.4363 75.7615 65.4716C75.3174 65.4919 75.1035 65.2059 75.1026 64.7716C75.1026 64.5412 75.1918 64.0548 75.5131 64.0398C76.3768 63.9983 77.2315 63.9498 78.0916 64.0672C78.5549 64.1299 78.5804 65.273 78.0916 65.3842V65.3834Z" fill="#F7BB50"/>
<path d="M102.319 65.3624C101.627 65.568 100.869 65.4381 100.181 65.4624C99.8307 65.4746 99.629 65.1568 99.6416 64.8157C99.6497 64.6035 99.6965 64.3297 99.8019 64.1989C99.9288 64.04 100.211 63.9876 100.438 63.9942L102.229 64.0447C102.673 64.0568 102.774 65.2278 102.32 65.3633L102.319 65.3624Z" fill="#F7BB50"/>
<path d="M104.139 36.1339C103.861 36.0829 103.871 35.2684 104.136 35.1909C104.575 35.2138 105.126 35.1619 105.575 35.3089C106.535 35.6241 106.876 36.605 106.768 37.5991C107.287 37.5929 107.839 37.924 107.84 38.4831L107.846 44.5867C107.846 45.0014 107.499 45.5191 107.073 45.5191L105.265 45.5209C104.794 45.5209 104.455 44.9732 104.455 44.5224L104.458 38.5368C104.458 38.2462 104.707 37.8826 104.899 37.7576C105.109 37.622 105.486 37.6035 105.809 37.6105C105.915 37.1764 105.87 36.5081 105.389 36.2642C105.027 36.0802 104.516 36.1304 104.139 36.1357V36.1339Z" fill="#5C4898"/>
<path d="M74.8261 35.3009C74.9027 35.2947 74.9767 35.3071 75.0392 35.3528C75.1669 35.4453 75.1924 36.4385 75.1898 36.6569C75.7093 36.7766 76.0844 37.1112 76.1918 37.6439L76.2068 44.5663C76.1319 45.1624 75.8308 45.4521 75.2558 45.6379C75.1009 45.6881 74.5012 45.7127 74.4942 45.4847C74.4863 45.5525 74.4669 45.6546 74.4194 45.6608C73.9395 45.7215 73.2236 45.6898 72.7605 45.5516L72.6813 45.313C72.3343 45.0823 72.2181 44.6059 72.219 44.1639L72.2304 37.9107C72.2304 37.5233 72.5307 37.1834 72.7033 36.9289L72.7631 36.7467L73.8215 36.6525C73.9633 35.8926 73.6604 35.2639 72.8116 35.3713L72.7077 35.2049L72.7094 34.2936C72.904 33.9159 73.7114 34.1501 74.0522 34.3112C74.3929 34.4723 75.0427 34.9135 74.8261 35.3V35.3009Z" fill="#5C4898"/>
<path d="M72.7033 36.9308L72.7077 35.2068C73.1797 35.1487 73.7379 35.2288 73.9413 35.7809C74.0399 36.0495 74.0337 36.5531 74.0108 36.8137L72.7033 36.9308Z" fill="#8B6CD1"/>
<path d="M74.4951 45.4856L75.1484 45.4724C75.5895 45.4636 76.0324 44.9987 76.0324 44.5135L76.0307 37.8332C76.0307 37.2442 75.5394 36.862 75.0155 36.8083C75.0102 36.2633 75.0234 35.7068 74.8262 35.3018C74.7584 34.9117 75.3958 34.7418 75.7251 34.6731C75.9435 34.6282 76.168 34.6247 76.389 34.6264L100.844 35.514C101.892 35.6469 102.465 35.9454 102.63 37.0575L102.637 51.878C102.545 52.7232 102.13 53.3537 101.248 53.4813L75.9919 53.3528C75.0841 53.2559 74.5021 52.8509 74.3296 51.9079L74.3181 45.593L74.4942 45.4873L74.4951 45.4856Z" fill="#E0D4F6"/>
<path d="M99.2282 33.5435L94.8468 33.3682L79.2604 32.7572C78.7646 32.6128 78.4732 32.2509 78.475 31.7525L78.4882 28.3248C78.4899 27.8088 78.9495 27.4548 79.4646 27.4777L99.2476 28.3864C99.7952 28.3424 100.262 28.7386 100.264 29.2845L100.272 32.6295C100.273 33.2036 99.7943 33.5655 99.2282 33.5435Z" fill="#564391"/>
<path d="M100.566 25.6737C104.138 25.9416 104.136 28.8875 104.136 29.2589C104.136 31.5758 104.136 35.1918 104.136 35.1918L104.138 36.1348V52.1765L104.125 55.1869C103.606 55.5541 103.373 56.1203 102.418 56.1176L82.9821 56.0736L74.4202 56.0436C73.5741 56.041 72.7305 55.2081 72.7279 54.3408L72.6812 45.3148C72.7895 45.387 73.0528 45.4901 73.1858 45.4892L74.4942 45.4865L74.4863 51.6526C74.4863 52.4389 75.1079 53.1706 75.932 53.1759L85.5312 53.2358L101.184 53.3062C101.937 53.3097 102.463 52.5102 102.463 51.8199L102.456 37.1351C102.456 36.1894 101.68 35.721 100.835 35.6893L82.7189 35.0166L76.4594 34.8044C75.8405 34.7833 75.3113 34.8713 74.8252 35.3019C74.4352 34.5006 73.5758 34.1898 72.7085 34.2963L72.727 28.1716C72.7323 26.5225 73.3418 24.2263 75.5 24C83.8604 24.4894 92.214 25.0473 100.566 25.6737Z" fill="#8B6CD1"/>
<path d="M20.7586 63.018L20.7982 66.1808L16.3772 65.2474C15.5566 64.7236 15.2212 63.8334 15.2564 62.9159L20.7586 63.018Z" fill="#8B6CD1"/>
<path d="M48.6975 63.4671C48.7662 63.4671 48.871 63.4847 48.8736 63.5278C48.9274 64.6998 48.8692 65.9457 48.7926 67.1035L48.6148 67.2039L45.364 67.1273L45.2073 66.9477L45.1403 67.122C39.6281 66.9547 34.0004 66.9248 28.691 66.5426L28.6117 66.3331L28.6285 63.313L28.8054 63.1844L32.7967 63.2399L48.6984 63.4662L48.6975 63.4671Z" fill="#8B6CD1"/>
<path d="M59.3726 63.6934L59.4589 63.9381C59.4809 63.9857 59.6606 63.983 59.7196 63.9866L60.2417 64.0183L60.1677 67.3562L58.4261 67.3166L58.4622 63.6934H59.3718H59.3726Z" fill="#8B6CD1"/>
<path d="M55.8181 57.4356C56.3552 57.8899 57.2189 58.4147 57.5975 59.0883C58.397 60.5103 58.4798 62.0908 58.4639 63.6942L58.6392 63.7558L58.6057 67.0937C59.0636 67.1624 59.5443 67.1906 60.0479 67.1783L60.1686 67.357L60.9689 67.3878C61.0297 67.4186 61.1186 67.4688 61.1098 67.5181C60.8693 68.9046 59.1375 70.7954 57.7058 70.8218L54.5237 70.8807C54.3873 70.8464 54.3397 70.7636 54.4374 70.6677C58.014 68.9472 58.3741 63.1377 56.3006 60.1704C54.9666 58.2606 53.0674 57.926 51.5001 59.7038C49.3764 62.1128 49.4151 66.7424 51.361 69.273L51.3628 69.5723L48.097 69.5996C47.5168 69.5976 44.3302 67.65 45.2055 66.9485L48.6773 67.0303L48.6966 63.467L48.7935 63.1879C48.7803 63.0849 48.7873 62.9642 48.8683 62.8894L48.8947 62.6393C49.0303 60.829 49.8087 58.8215 51.3011 57.6927C52.6809 56.6493 53.9224 56.7585 55.4403 57.1953C55.5539 57.2278 55.7062 57.3916 55.8163 57.4356H55.8181Z" fill="#4B3A83"/>
<path d="M58.8963 62.9336L58.434 63.0067C58.434 54.5099 51.9959 57.0404 50.7103 58.4791C49.6071 59.7145 49.2285 61.1242 48.8948 62.6395L48.7794 62.3885C48.9608 61.2016 49.298 60.0825 49.8545 59.0409C50.3643 58.2036 50.9807 57.5132 51.8242 57.0475C53.1581 56.3114 58.8954 57.0475 58.8954 62.9327L58.8963 62.9336Z" fill="#5C4898"/>
<path d="M48.8692 62.8894L48.8798 63.0453L48.7952 63.1879L48.7222 63.0356C48.6975 62.9845 48.8278 62.8877 48.8701 62.8894H48.8692Z" fill="#5C4898"/>
<path d="M54.5246 70.8809C53.2911 70.9038 52.1438 70.6036 51.3645 69.5725C50.8283 68.8628 50.3396 68.0263 50.0852 67.1097C49.4741 64.9024 49.6335 62.5981 50.6883 60.5809C51.5283 58.9758 53.255 57.7607 54.9156 58.6641C58.736 60.7429 58.6788 68.8945 54.7051 70.6793C54.6426 70.7074 54.5061 70.8175 54.5246 70.8809Z" fill="#564391"/>
<path d="M53.8563 67.8493C52.0108 68.1152 50.8899 64.5167 52.2371 62.2142C52.5083 61.751 52.923 61.3099 53.4847 61.2509C54.1601 61.1805 54.7527 61.6225 55.0767 62.2168C56.3296 64.5158 55.406 67.6266 53.8563 67.8493Z" fill="#7A61B9"/>
<path d="M38.7162 49.056L38.3244 49.9356C37.8269 49.7815 37.4483 49.5376 37.06 49.262L37.6464 49.0727C37.9934 48.9609 38.3711 48.9468 38.7171 49.0551L38.7162 49.056Z" fill="#9075D1"/>
<path d="M40.8928 48.8394C40.9131 48.7804 40.9985 48.688 41.0416 48.6422L41.3154 48.9231C41.3647 48.9706 41.3903 49.1344 41.37 49.1934C41.3445 49.2674 41.1209 49.2489 41.0698 49.189C40.9844 49.0895 40.8629 48.9249 40.8937 48.8386L40.8928 48.8394Z" fill="#9075D1"/>
<path d="M65.566 37.2055V35.2711L68.5386 34.9268C68.8335 34.8968 69.1329 35.235 69.1329 35.5748L69.1311 64.5704C69.1311 65.0238 68.8353 65.1955 68.4487 65.1858L65.5607 65.1215C65.5607 55.8163 65.5487 46.5107 65.566 37.2055Z" fill="#D2C2F0"/>
<path d="M64.6943 63.9768V63.5383L64.9779 63.5938C65.043 63.6141 65.0685 63.8905 65.0025 63.909L64.6943 63.9768Z" fill="#8D72D0"/>
<path d="M64.8713 35.3556C64.8713 36.6358 64.7736 61.7853 64.7736 65.1198C63.7135 65.1198 62.7925 65.1198 61.7799 65.1198C61.2516 65.1198 61.3555 64.7676 61.3555 64.3978L61.3599 36.3523C61.3599 35.8293 61.6038 35.6083 62.1805 35.6083L64.8713 35.3556Z" fill="#D2C2F0"/>
<path d="M49.9003 48.423L42.7322 48.7558C42.4275 48.7699 42.1792 48.5269 42.1792 48.209L42.1775 37.9178C42.2056 37.6563 42.3826 37.3886 42.6397 37.3596L49.954 36.5557C50.1908 36.6349 50.3889 36.8638 50.3889 37.1324V47.8498C50.3889 48.1174 50.1794 48.3402 49.9003 48.4221V48.423Z" fill="#E0D4F6"/>
<path d="M52.1517 48.312C51.8189 48.3287 51.4869 48.1077 51.4878 47.7335L51.4905 36.8999C51.4905 36.5108 51.8717 36.2572 52.2045 36.2889L57.5271 35.7033C57.9322 35.6584 58.3469 35.9745 58.3469 36.4271L58.3495 46.9789C58.4244 47.3857 58.1523 48.0038 57.6909 48.0276L52.1517 48.3129V48.312Z" fill="#E0D4F6"/>
<path d="M58.8285 49.9973C59.702 50.0378 60.2505 50.2623 60.3896 51.2036L60.5 64.5001C60 64.5001 59 64.5001 58.5 64.5001C58.5 57.0001 50 53.5001 48.8948 62.6386C48.8462 63.0405 48.8367 63.623 48.8367 63.623C48.8367 63.623 35.3836 63.5111 28.9049 63.3614L28.8037 63.1836C28.5853 62.1261 28.4533 60.4972 27.6115 59.2081C24.7393 54.4905 20.7049 58.8683 20.9382 63.1906C19.1676 63.158 17.131 63.1246 15.3585 63.092L15.2555 62.9141L15.2573 40.6738L15.3559 40.4985C15.6412 40.4519 16.4125 40.4351 16.4988 40.7424L16.5076 50.8162C16.5419 51.1217 16.6511 51.4748 16.9496 51.6086C31.2354 51.0924 44.7679 50.55 58.8285 49.9973Z" fill="#A88BE2"/>
<path d="M41.1147 37.9257C41.1147 40.2898 41.1147 44.2768 41.1147 48.3464C41.1147 48.4784 41.1759 48.8542 40.7802 48.8746C38.2267 49.0067 36.7299 49.0508 34.4582 49.1599L33.9986 49.1793C33.7978 49.1881 33.5187 48.9636 33.5187 48.7091L33.5143 38.8934C33.5143 38.6222 33.7115 38.3431 33.9783 38.314L40.56 37.6043C40.9818 37.5436 41.1139 37.8533 41.1147 38.0194C41.1147 38.0194 41.1147 37.9252 41.1147 37.9257Z" fill="#E0D4F6"/>
<path d="M25.9605 49.5597C25.6365 49.5747 25.36 49.4162 25.36 49.0833V39.854C25.36 39.6365 25.5379 39.2685 25.7483 39.2456L31.9981 38.5509C32.2297 38.5253 32.4868 38.7428 32.4868 38.9911L32.4885 48.7963C32.4885 48.9891 32.2508 49.2621 32.0756 49.2709L25.9597 49.5597H25.9605Z" fill="#E0D4F6"/>
<path d="M18.133 49.9586C17.7508 49.8494 17.595 49.5421 17.595 49.1776L17.5985 40.7416C17.6487 40.2767 17.9419 40.0979 18.3531 40.0539C18.3531 40.0539 23.7743 39.4402 24.0446 39.4402C24.3149 39.4402 24.395 39.6295 24.395 40.0859C24.395 43.1074 24.395 49.16 24.395 49.16C24.395 49.5852 24.0411 49.6671 23.7197 49.683L18.133 49.9586Z" fill="#E0D4F6"/>
<path d="M28.0526 59.7435L27.9733 59.8315C27.6713 59.6959 27.3702 59.4917 27.0691 59.2187C26.6121 59.0188 26.1815 58.7934 25.7783 58.5425C24.6354 58.3567 23.6078 58.6552 22.8453 59.6008C21.4445 61.338 21.146 64.0755 21.6294 66.1737L20.7982 66.1816L20.6212 66.0813C20.6089 65.1048 20.5966 64.1283 20.5842 63.151L20.7586 63.0198C20.7498 62.0777 20.9461 61.1206 21.2516 60.196C21.5889 59.1764 22.1365 58.2616 22.9598 57.6012C24.0102 56.7586 25.3864 56.7383 26.4439 57.5563C27.1923 58.1357 27.6925 58.9105 28.0526 59.7452V59.7435Z" fill="#5C4898"/>
<path d="M28.0526 59.7434C28.5417 61.0294 28.8116 61.9984 28.8045 63.1853L28.7869 66.4378C28.7869 66.4378 30.2732 66.5285 30.8746 66.5285C31.476 66.5285 30.3537 68.5845 30.1041 68.8698C29.6762 69.3593 29.059 69.7626 28.3792 69.7661L25.3327 69.7811C25.2984 69.6877 25.3785 69.6023 25.4331 69.6076L25.6585 69.6314C26.3691 69.3179 26.8322 68.7703 27.2566 68.1064C28.4655 65.8549 28.5606 63.1298 27.5419 60.7789C27.1536 59.9521 26.6411 59.297 25.8734 58.8092L25.2394 58.2959C25.9473 58.4112 27.2645 58.3742 27.3086 58.428C27.3526 58.4818 27.8369 59.1764 28.0526 59.7434Z" fill="#4B3A83"/>
<path d="M25.7783 58.5416C29.2624 60.705 30.22 68.3834 26.0732 69.6138C25.789 69.6982 25.5036 69.7803 25.3327 69.7811C24.4751 69.7855 23.6528 69.5998 23.0047 68.8866C22.6719 68.5203 22.3329 68.0607 22.1163 67.6204C21.8997 67.1802 21.7403 66.6554 21.6285 66.1729C21.5378 66.1209 21.4445 66.0567 21.4022 65.9572C21.1055 65.2536 21.2428 63.2998 21.3925 62.5136C21.7051 60.8661 22.5874 58.8621 24.3395 58.4113C24.749 58.3057 25.5326 58.171 25.7774 58.5416H25.7783Z" fill="#564391"/>
<path d="M24.9568 67.041C23.4705 67.3668 22.428 64.4251 23.4388 62.2177C23.658 61.7387 24.0058 61.2905 24.528 61.1769C26.0301 60.8494 27.2223 64.1882 25.7237 66.4863C25.5388 66.7698 25.1936 66.9882 24.9568 67.0401V67.041Z" fill="#7A61B9"/>
</svg>
