<svg width="116" height="84" viewBox="0 0 116 84" fill="none" xmlns="http://www.w3.org/2000/svg">
<path d="M46.2714 45.3159L44.1245 45.3412L43.9503 45.2407L43.9433 42.9466C43.8614 42.2437 43.3397 42.0601 42.7143 42.0068L34.102 42.0085C33.3321 42.0837 33.0002 42.3906 32.9279 43.1704L32.9471 45.2136L32.7738 45.3395H30.625L30.6546 42.6249C30.6686 41.0145 32.1066 39.5588 33.7554 39.5588L43.1446 39.5623C44.816 39.5623 46.2436 41.0897 46.2575 42.7071L46.2714 45.3159Z" fill="#7C513C"/>
<path d="M17.7421 56.6798C17.9912 56.578 18.1468 57.2133 17.9126 57.3247C18.0245 57.4721 18.076 57.9319 18.0865 58.1574L18.0778 72.702C18.2474 73.9735 19.0323 74.7228 20.2849 74.8553L58.0204 74.6339C59.0868 74.519 59.8202 74.0478 60.2013 73.0106L60.4128 72.9185L88.294 72.9115L88.3543 72.736C93.3279 72.7614 97.7028 72.7456 102.654 72.6886C102.612 72.4429 102.674 72.2946 102.841 72.2437L102.951 72.2271C102.981 72.2192 102.998 72.1077 102.998 72.0753L102.992 71.1031L109.175 71.6526L109.154 72.3607L109.289 72.4072C109.459 72.4274 109.201 72.4631 109.175 72.7325L110.003 72.7711C110.052 72.4815 110.033 72.2148 109.946 71.9709C109.7 72.0165 109.668 71.812 109.89 71.7006C111.531 71.8849 113.111 72.099 114.694 72.4991C115.163 72.6175 115.675 72.7781 115.994 73.1484C116.052 73.4151 115.659 73.6784 115.403 73.753C114.187 74.1048 113.024 74.368 111.745 74.4742L101.244 75.3446L79.0749 76.0484L74.0715 76.1344L63.8096 76.2633L47.3818 76.2941L32.7817 76.2537C26.1219 76.2353 19.5417 75.8711 12.9143 75.4359C9.92222 75.2394 7.02458 74.9472 4.08498 74.4804C3.15494 74.3321 2.31318 74.1057 1.45306 73.7828C1.16723 73.6757 1.01426 73.4371 0.859549 73.1984C0.657632 72.8887 0.351697 72.5842 0.352571 72.1253L0.398899 54.363C0.405892 51.8456 2.27821 48.6614 4.7458 47.6971C5.38476 47.4479 6.01849 47.4242 6.65133 47.7085C7.42841 45.7965 9.54198 43.3677 11.541 43.3019C13.7683 43.2291 14.4098 46.0975 14.1057 48.3042L13.9195 49.6564C14.7062 48.8957 16.4878 48.7117 17.5586 48.8494L17.5489 56.4122C17.5489 56.4701 17.5385 56.5973 17.5682 56.6096L17.7386 56.6807L17.7421 56.6798Z" fill="#E8E0F7"/>
<path d="M103.4 72.227L103.382 72.8926H88.1085L88.1323 70.0974L96.3617 70.0913L96.3591 41.5675C96.1595 41.4137 96.1568 41.1098 96.3599 40.9595V27.9371C96.2001 27.9371 96.1824 27.7074 96.3476 27.6733L96.3493 27.3274C96.1815 27.1824 96.1727 26.9343 96.3511 26.7893L96.3538 25.314C96.193 25.3113 96.1877 25.0807 96.3538 25.051V22.8681C96.193 22.8655 96.1877 22.6349 96.3538 22.6052L96.3564 21.2128L96.3114 12.0129L99.4281 12.0077L100.971 13.539V70.0913L103.415 70.1L103.4 72.2261V72.227Z" fill="#8F78C9"/>
<path d="M55.9254 30.3761C55.9945 30.3848 56.096 30.4023 56.105 30.4519C56.1418 30.6567 56.123 31.1517 56.1086 31.3887C56.1759 31.719 56.1167 31.9351 55.9316 32.0362L55.9343 32.7351C56.1975 32.7316 56.1804 33.0122 55.9343 33.0714L55.9316 34.0561C56.1957 34.0387 56.1813 34.3219 55.9316 34.3794V42.3181C56.1903 42.3251 56.1732 42.5264 55.9307 42.5848L55.9272 45.0012L48.8982 44.9934C48.5156 42.678 48.4644 38.1684 49.5988 36.3523L51.0843 33.9725C52.0031 32.5015 54.394 30.5173 55.9281 30.3752L55.9254 30.3761Z" fill="#E8E0F7"/>
<path d="M96.3725 12.0112L96.3768 12.0094L96.5522 12.069C96.6475 31.3599 96.6004 49.5278 96.6004 70.1954C96.6004 70.1954 96.5232 70.2698 96.3672 70.4178L88.4313 70.4362L88.4103 72.9253L88.1499 73.2258C78.8936 73.2284 69.6355 73.2301 60.3757 73.2328L60.1609 72.9988C60.1872 63.5972 60.2807 57.3286 60.2416 48.2482C60.2416 46.9199 59.3788 46.1754 58.3705 46.1754C58.0796 46.1715 55.4552 46.1401 55.4552 46.1401C55.4552 46.1401 55.6322 23.2344 55.6322 12.661C55.6322 12.2319 55.997 12.0077 56.4178 12.0077L96.3725 12.0112Z" fill="#A690E0"/>
<path d="M55.6622 44.6661C57.4851 44.6661 58.8344 44.5469 59.8355 45.4628C60.2708 45.8611 60.5372 46.4806 60.5372 47.0785C60.5372 50.3804 60.5572 53.6823 60.5572 56.9842C60.4397 57.2992 60.0923 57.5089 59.7137 57.6248L41.1096 60.9877C38.9596 61.1673 38.6216 61.2095 36.7534 60.9142L17.889 57.7257C17.0736 57.7257 17.0211 56.976 17.0211 56.546C17.0211 52.913 17.0194 47.2431 17.0194 47.2431C17.0211 45.99 18.1189 44.8608 19.3576 44.8599C31.935 44.8509 43.1403 44.651 55.6622 44.6661Z" fill="#935F45"/>
<path d="M40.6279 23.2324L9.71738 23.2262C8.83162 23.2262 8.15534 22.7533 7.77983 21.9852C7.34694 21.1006 7.42256 20.0881 7.91021 19.2061C8.85335 17.5017 10.7188 17.0086 12.6807 17.182C13.662 14.6193 16.2698 13.1768 19.0479 13.6086C19.7546 11.0687 21.6713 9.15845 24.2295 8.50069C28.0264 7.52588 31.9467 9.66206 32.9411 13.585C35.561 13.2749 37.7559 14.6123 38.5565 17.1838C39.7013 17.0875 40.7757 17.2285 41.6997 17.8521C42.8314 18.6167 43.4034 19.9217 43.1513 21.2425C42.9036 22.5405 41.9031 23.2306 40.6288 23.2306L40.6279 23.2324Z" fill="#E4DAF7"/>
<path d="M109.884 64.3811C109.816 64.3638 109.715 64.3369 109.709 64.2858C109.69 64.1144 109.679 62.8391 109.711 62.7707L112.476 58.4087C112.608 58.0797 112.44 57.9065 112.119 58.0321L110.056 61.3464C109.919 61.3984 109.807 61.3412 109.707 61.2382L109.697 53.3948C109.632 52.9723 109.339 52.9402 109.193 53.3091L109.181 59.1983C109.093 59.323 108.967 59.3256 108.823 59.2762L107.538 57.5576C107.257 57.3559 107.03 57.6762 107.175 57.9524L109.172 60.6001L109.19 64.2867L109.016 64.3889C106.981 64.4027 105.111 63.3646 104.059 61.588C102.56 59.0936 102.646 55.4026 105.204 53.5879C104.209 51.8961 104.442 49.8363 106.019 48.5358C105.215 47.2648 104.978 45.8085 105.466 44.3964C105.984 42.8994 106.788 41.5366 107.814 40.3496C108.369 39.8344 109 39.5089 109.739 39.5651C110.386 39.6145 110.987 39.9617 111.459 40.5123C112.422 41.6344 113.173 42.9392 113.67 44.347C114.167 45.7548 113.918 47.2752 113.104 48.5488C114.608 49.8726 114.852 51.8043 113.894 53.5775C116.51 55.3316 116.533 59.3975 114.818 61.8131C113.665 63.4365 111.849 64.3949 109.884 64.3819V64.3811Z" fill="#A791E0"/>
<path d="M109.77 64.428L109.787 71.6749L109.844 71.9442C109.93 72.1863 109.95 72.4521 109.901 72.7414C109.893 72.7677 109.806 72.8936 109.763 72.8927L108.909 72.8769L108.849 72.2703L108.893 71.3261L108.895 64.4376V60.676L106.895 58.0333C106.72 57.8025 106.859 57.431 107.079 57.3322C107.299 57.2334 107.533 57.3663 107.691 57.5849L108.889 59.2362L108.899 53.2376C108.899 53.0094 109.181 52.8005 109.371 52.8267C109.617 52.8608 109.756 53.0627 109.756 53.3302L109.768 61.3176L111.871 57.9284C111.968 57.7728 112.347 57.7772 112.466 57.8847C112.625 58.029 112.64 58.3139 112.517 58.5071L109.761 62.8448L109.769 64.4297L109.77 64.428Z" fill="#8671BD"/>
<path d="M17.2653 57.366C17.3712 57.5534 17.4614 57.7668 17.5366 58.0055L17.8535 58.2267C23.3616 59.3243 31.6057 60.3621 37.0858 61.3157C39.1688 61.4956 39.1688 61.4956 40.9939 61.3799C47.0954 60.2779 53.2188 59.1985 59.3641 58.1399C59.7247 58.0002 60.0433 57.779 60.3217 57.4779L60.5511 57.3645L60.5572 72.464C60.5572 72.6749 60.5178 72.9161 60.4758 73.0619C60.1703 74.1352 59.2206 74.9335 58.0014 74.9335L19.4378 74.9239C18.138 74.9239 17.1761 73.8098 17.0562 72.6324L17.0735 57.4783L17.2662 57.3677L17.2653 57.366Z" fill="#86563E"/>
<path d="M80.9656 53.1646H72.1219V70.1715H80.9656V53.1646Z" fill="#7B68B4"/>
<path d="M92.1902 53.1646H84.7071V66.7701H92.1902V53.1646Z" fill="#7B68B4"/>
<path d="M68.3804 53.1646H61.5776V66.7701H68.3804V53.1646Z" fill="#7B68B4"/>
<path d="M60.5565 56.906V57.4068C60.4243 57.8293 59.9006 58.0837 59.4102 58.1674L41.0268 61.4956C40.7589 61.4643 40.7667 60.649 41.0268 60.589C41.0268 60.589 51.2976 59.2237 59.8409 57.3481C60.1619 57.2776 60.5573 56.9068 60.5573 56.9068L60.5565 56.906Z" fill="#724A37"/>
<path d="M68.7205 17.4498H60.8973V27.9941H68.7205V17.4498Z" fill="#E5DCF9"/>
<path d="M68.7205 32.0758H60.8973V42.6201H68.7205V32.0758Z" fill="#E5DCF9"/>
<path d="M79.9451 17.4498H72.4621V27.9941H79.9451V17.4498Z" fill="#E5DCF9"/>
<path d="M79.9451 32.0758H72.4621V42.6201H79.9451V32.0758Z" fill="#E5DCF9"/>
<path d="M91.5099 17.4498H83.6867V27.9941H91.5099V17.4498Z" fill="#E5DCF9"/>
<path d="M91.5099 32.0758H83.6867V42.6201H91.5099V32.0758Z" fill="#E5DCF9"/>
<path d="M37.4278 60.8949V61.668L17.7307 58.3083C17.229 58.212 16.9456 57.787 17.0724 57.0265C17.0724 57.0265 17.3157 57.4319 17.5758 57.4783C26.8752 59.1392 37.4278 60.8949 37.4278 60.8949Z" fill="#724A37"/>
<path d="M41.8495 60.5497V61.3193L41.8208 63.135C41.8121 63.6836 41.2796 64.0499 40.7889 64.049L36.3413 64.0376C35.7584 64.0358 35.386 63.4044 35.3869 62.9008C35.3906 61.4815 35.3912 60.4756 35.3869 59.0765C35.3851 58.5729 35.7601 57.9477 36.343 57.945L40.6958 57.9265C41.324 57.9239 41.8391 58.3377 41.8426 59.0096L41.8495 60.5497Z" fill="#FCBE38"/>
</svg>
