<svg width="28" height="28" viewBox="0 0 28 28" fill="none" xmlns="http://www.w3.org/2000/svg">
<rect width="28" height="28" rx="10" fill="#EFE9F8"/>
<path d="M12.4608 7.10825C12.9913 5.63634 14.9909 5.63061 15.5329 7.09101L15.5392 7.10825L16.8112 10.6374L20.4278 10.8064C21.9432 10.8772 22.565 12.86 21.3803 13.8436L18.5462 16.1965L19.5107 19.8346C19.9137 21.3548 18.2853 22.5805 17.019 21.7102L14 19.6352L10.981 21.7102C9.7147 22.5805 8.08628 21.3548 8.48927 19.8346L9.45374 16.1965L6.61971 13.8436C5.435 12.86 6.0568 10.8772 7.57222 10.8064L11.1887 10.6374L12.4608 7.10825ZM14.2565 7.60662C14.1678 7.36034 13.8322 7.36032 13.7435 7.6066L12.2177 11.8397C12.1792 11.9464 12.0831 12.019 11.9735 12.0241L7.6338 12.2269C7.38123 12.2387 7.2776 12.5691 7.47506 12.7331L10.8727 15.5539C10.9582 15.6249 10.9947 15.7419 10.9657 15.8515L9.80972 20.212C9.74361 20.4614 10.0056 20.6632 10.2151 20.5311L10.225 20.5246L13.8488 18.0339C13.9405 17.9709 14.0595 17.9709 14.1512 18.0339L17.775 20.5246C17.986 20.6696 18.2574 20.4653 18.1903 20.212L17.0343 15.8515C17.0053 15.7419 17.0418 15.6249 17.1273 15.5539L20.5249 12.7331C20.7193 12.5717 20.6219 12.249 20.3779 12.2277L20.3662 12.2269L16.0265 12.0241C15.9203 12.0191 15.8268 11.9509 15.7861 11.8496L15.7823 11.8397L14.2565 7.60662Z" fill="#765CAC"/>
</svg>
